HIERARCHY
ROOT newVegas:Hips
{
	OFFSET 0.000000 96.479958 0.000000
	CHANNELS 6 Xposition Yposition Zposition Xrotation Yrotation Zrotation
	JOINT newVegas:Pelvis
	{
		OFFSET 0.000000 0.000000 0.000000
		CHANNELS 3 Xrotation Yrotation Zrotation
		JOINT newVegas:LeftUpLeg
		{
			OFFSET 18.735201 -5.666702 -4.541200
			CHANNELS 3 Xrotation Yrotation Zrotation
			JOINT newVegas:LeftLeg
			{
				OFFSET -0.021200 -31.938179 0.493100
				CHANNELS 3 Xrotation Yrotation Zrotation
				JOINT newVegas:LeftFoot
				{
					OFFSET 0.021200 -31.938179 -4.336299
					CHANNELS 3 Xrotation Yrotation Zrotation
					JOINT newVegas:LeftToeBase
					{
						OFFSET 0.943001 -26.722000 15.023500
						CHANNELS 3 Xrotation Yrotation Zrotation
						End Site
						{
							OFFSET 0.000000 30.670183 0.000000
						}
					}
				}
				JOINT newVegas:Left_PantLeg
				{
					OFFSET 0.663870 -9.044666 -1.108900
					CHANNELS 3 Xrotation Yrotation Zrotation
					End Site
					{
						OFFSET 1.415995 20.635357 0.000000
					}
				}
			}
		}
		JOINT newVegas:RightUpLeg
		{
			OFFSET -18.735201 -5.666702 -4.541200
			CHANNELS 3 Xrotation Yrotation Zrotation
			JOINT newVegas:RightLeg
			{
				OFFSET 0.018946 -31.938133 0.493100
				CHANNELS 3 Xrotation Yrotation Zrotation
				JOINT newVegas:RightFoot
				{
					OFFSET -0.018946 -31.938126 -4.336299
					CHANNELS 3 Xrotation Yrotation Zrotation
					JOINT newVegas:RightToeBase
					{
						OFFSET -0.943001 -26.722004 15.023500
						CHANNELS 3 Xrotation Yrotation Zrotation
						End Site
						{
							OFFSET 0.000000 30.670187 0.000000
						}
					}
				}
				JOINT newVegas:Right_PantLeg
				{
					OFFSET -0.661674 -9.044716 -1.108900
					CHANNELS 3 Xrotation Yrotation Zrotation
					End Site
					{
						OFFSET -1.415958 20.635269 0.000000
					}
				}
			}
		}
	}
	JOINT newVegas:Spine
	{
		OFFSET 0.000000 10.199997 -0.299500
		CHANNELS 3 Xrotation Yrotation Zrotation
		JOINT newVegas:Spine1
		{
			OFFSET 0.000000 11.900002 -1.516600
			CHANNELS 3 Xrotation Yrotation Zrotation
			JOINT newVegas:Spine2
			{
				OFFSET 0.000000 13.600006 -2.842500
				CHANNELS 3 Xrotation Yrotation Zrotation
				JOINT newVegas:Neck
				{
					OFFSET 0.000000 9.624100 -2.890100
					CHANNELS 3 Xrotation Yrotation Zrotation
					JOINT newVegas:Head
					{
						OFFSET 0.000000 14.068802 -1.351900
						CHANNELS 3 Xrotation Yrotation Zrotation
						JOINT newVegas:Hair_Back
						{
							OFFSET 0.000000 3.231903 -17.524799
							CHANNELS 3 Xrotation Yrotation Zrotation
							End Site
							{
								OFFSET 0.000000 19.849884 0.000000
							}
						}
						JOINT newVegas:Hair_Front
						{
							OFFSET 0.000000 31.260406 4.573800
							CHANNELS 3 Xrotation Yrotation Zrotation
							JOINT newVegas:Hair_Front1
							{
								OFFSET 0.000000 2.284103 11.993300
								CHANNELS 3 Xrotation Yrotation Zrotation
								JOINT newVegas:Hair_Front2
								{
									OFFSET 0.000000 2.284103 11.993300
									CHANNELS 3 Xrotation Yrotation Zrotation
									End Site
									{
										OFFSET 0.000000 12.208862 0.000000
									}
								}
							}
						}
						JOINT newVegas:Jowel
						{
							OFFSET 0.000000 -7.458206 6.864100
							CHANNELS 3 Xrotation Yrotation Zrotation
							End Site
							{
								OFFSET 0.000000 19.849884 0.000000
							}
						}
					}
				}
				JOINT newVegas:LeftShoulder
				{
					OFFSET 15.263000 10.923401 -0.547700
					CHANNELS 3 Xrotation Yrotation Zrotation
					JOINT newVegas:LeftArm
					{
						OFFSET 25.438599 -2.830597 -13.032500
						CHANNELS 3 Xrotation Yrotation Zrotation
						JOINT newVegas:LeftForeArm
						{
							OFFSET 29.960503 0.000000 0.000000
							CHANNELS 3 Xrotation Yrotation Zrotation
							JOINT newVegas:LeftHand
							{
								OFFSET 27.849251 0.000000 0.000000
								CHANNELS 3 Xrotation Yrotation Zrotation
								JOINT newVegas:LeftHandThumb1
								{
									OFFSET 4.487587 -3.305161 6.305391
									CHANNELS 3 Xrotation Yrotation Zrotation
									JOINT newVegas:LeftHandThumb2
									{
										OFFSET 5.480453 -3.164139 3.164143
										CHANNELS 3 Xrotation Yrotation Zrotation
										JOINT newVegas:LeftHandThumb3
										{
											OFFSET 5.159721 -2.978973 2.978967
											CHANNELS 3 Xrotation Yrotation Zrotation
											End Site
											{
												OFFSET 2.494507 5.926697 1.738678
											}
										}
									}
								}
								JOINT newVegas:LeftHandIndex1
								{
									OFFSET 18.578728 -0.527832 5.208049
									CHANNELS 3 Xrotation Yrotation Zrotation
									JOINT newVegas:LeftHandIndex2
									{
										OFFSET 3.192009 0.000000 0.000000
										CHANNELS 3 Xrotation Yrotation Zrotation
										JOINT newVegas:LeftHandIndex3
										{
											OFFSET 3.835129 0.000000 0.000000
											CHANNELS 3 Xrotation Yrotation Zrotation
											End Site
											{
												OFFSET -0.034599 3.816971 0.371180
											}
										}
									}
								}
								JOINT newVegas:LeftHandMiddle1
								{
									OFFSET 18.476105 0.000000 0.000000
									CHANNELS 3 Xrotation Yrotation Zrotation
									JOINT newVegas:LeftHandMiddle2
									{
										OFFSET 3.324875 0.000000 0.000000
										CHANNELS 3 Xrotation Yrotation Zrotation
										JOINT newVegas:LeftHandMiddle3
										{
											OFFSET 4.596550 0.000000 0.000000
											CHANNELS 3 Xrotation Yrotation Zrotation
											End Site
											{
												OFFSET 0.057701 4.578827 0.399218
											}
										}
									}
								}
								JOINT newVegas:LeftHandRing1
								{
									OFFSET 17.732719 0.121887 -4.201567
									CHANNELS 3 Xrotation Yrotation Zrotation
									JOINT newVegas:LeftHandRing2
									{
										OFFSET 2.733170 0.000000 0.000000
										CHANNELS 3 Xrotation Yrotation Zrotation
										JOINT newVegas:LeftHandRing3
										{
											OFFSET 3.178268 0.000000 0.000000
											CHANNELS 3 Xrotation Yrotation Zrotation
											End Site
											{
												OFFSET 0.119102 3.170624 0.185394
											}
										}
									}
								}
								JOINT newVegas:LeftHandPinky1
								{
									OFFSET 15.989624 -0.606689 -7.535461
									CHANNELS 3 Xrotation Yrotation Zrotation
									JOINT newVegas:LeftHandPinky2
									{
										OFFSET 2.538986 0.000000 0.000000
										CHANNELS 3 Xrotation Yrotation Zrotation
										JOINT newVegas:LeftHandPinky3
										{
											OFFSET 2.593102 0.000000 0.000000
											CHANNELS 3 Xrotation Yrotation Zrotation
											End Site
											{
												OFFSET -0.150902 2.584198 0.152708
											}
										}
									}
								}
							}
							JOINT newVegas:Left_Sleeve
							{
								OFFSET 0.267448 -0.649796 0.577675
								CHANNELS 3 Xrotation Yrotation Zrotation
								End Site
								{
									OFFSET 0.000000 15.991241 0.000000
								}
							}
							JOINT newVegas:Left_CapeC
							{
								OFFSET 15.715958 -8.608795 -6.935905
								CHANNELS 3 Xrotation Yrotation Zrotation
								JOINT newVegas:Left_CapeC1
								{
									OFFSET 0.000000 -8.688499 0.000000
									CHANNELS 3 Xrotation Yrotation Zrotation
									End Site
									{
										OFFSET 0.000000 8.688499 0.000000
									}
								}
							}
						}
						JOINT newVegas:Left_CapeB
						{
							OFFSET 26.118385 -8.608795 -7.079235
							CHANNELS 3 Xrotation Yrotation Zrotation
							JOINT newVegas:Left_CapeB1
							{
								OFFSET 0.000000 -8.688499 0.000000
								CHANNELS 3 Xrotation Yrotation Zrotation
								End Site
								{
									OFFSET 0.000000 8.688499 0.000000
								}
							}
						}
						JOINT newVegas:Left_CapeA
						{
							OFFSET 5.115639 -8.608795 -10.395809
							CHANNELS 3 Xrotation Yrotation Zrotation
							JOINT newVegas:Left_CapeA1
							{
								OFFSET 0.000000 -8.688499 0.000000
								CHANNELS 3 Xrotation Yrotation Zrotation
								End Site
								{
									OFFSET 0.000000 8.688499 0.000000
								}
							}
						}
					}
				}
				JOINT newVegas:RightShoulder
				{
					OFFSET -15.263000 10.923401 -0.547700
					CHANNELS 3 Xrotation Yrotation Zrotation
					JOINT newVegas:RightArm
					{
						OFFSET -25.438599 -2.830597 -13.032500
						CHANNELS 3 Xrotation Yrotation Zrotation
						JOINT newVegas:RightForeArm
						{
							OFFSET -29.960503 0.000000 0.000000
							CHANNELS 3 Xrotation Yrotation Zrotation
							JOINT newVegas:RightHand
							{
								OFFSET -27.849251 0.000000 0.000000
								CHANNELS 3 Xrotation Yrotation Zrotation
								JOINT newVegas:RightHandThumb1
								{
									OFFSET -4.487587 -3.305161 6.305391
									CHANNELS 3 Xrotation Yrotation Zrotation
									JOINT newVegas:RightHandThumb2
									{
										OFFSET -5.480453 -3.164139 3.164143
										CHANNELS 3 Xrotation Yrotation Zrotation
										JOINT newVegas:RightHandThumb3
										{
											OFFSET -5.159721 -2.978973 2.978967
											CHANNELS 3 Xrotation Yrotation Zrotation
											End Site
											{
												OFFSET -2.494507 5.926697 1.738678
											}
										}
									}
								}
								JOINT newVegas:RightHandIndex1
								{
									OFFSET -18.578728 -0.527832 5.208049
									CHANNELS 3 Xrotation Yrotation Zrotation
									JOINT newVegas:RightHandIndex2
									{
										OFFSET -3.192009 0.000000 0.000000
										CHANNELS 3 Xrotation Yrotation Zrotation
										JOINT newVegas:RightHandIndex3
										{
											OFFSET -3.835129 0.000000 0.000000
											CHANNELS 3 Xrotation Yrotation Zrotation
											End Site
											{
												OFFSET 0.034599 3.816971 0.371180
											}
										}
									}
								}
								JOINT newVegas:RightHandMiddle1
								{
									OFFSET -18.476105 0.000000 0.000000
									CHANNELS 3 Xrotation Yrotation Zrotation
									JOINT newVegas:RightHandMiddle2
									{
										OFFSET -3.324875 0.000000 0.000000
										CHANNELS 3 Xrotation Yrotation Zrotation
										JOINT newVegas:RightHandMiddle3
										{
											OFFSET -4.596550 0.000000 0.000000
											CHANNELS 3 Xrotation Yrotation Zrotation
											End Site
											{
												OFFSET -0.057701 4.578827 0.399218
											}
										}
									}
								}
								JOINT newVegas:RightHandRing1
								{
									OFFSET -17.732719 0.121887 -4.201567
									CHANNELS 3 Xrotation Yrotation Zrotation
									JOINT newVegas:RightHandRing2
									{
										OFFSET -2.733170 0.000000 0.000000
										CHANNELS 3 Xrotation Yrotation Zrotation
										JOINT newVegas:RightHandRing3
										{
											OFFSET -3.178268 0.000000 0.000000
											CHANNELS 3 Xrotation Yrotation Zrotation
											End Site
											{
												OFFSET -0.119102 3.170624 0.185394
											}
										}
									}
								}
								JOINT newVegas:RightHandPinky1
								{
									OFFSET -15.989624 -0.606689 -7.535461
									CHANNELS 3 Xrotation Yrotation Zrotation
									JOINT newVegas:RightHandPinky2
									{
										OFFSET -2.538986 0.000000 0.000000
										CHANNELS 3 Xrotation Yrotation Zrotation
										JOINT newVegas:RightHandPinky3
										{
											OFFSET -2.593102 0.000000 0.000000
											CHANNELS 3 Xrotation Yrotation Zrotation
											End Site
											{
												OFFSET 0.150902 2.584198 0.152708
											}
										}
									}
								}
							}
							JOINT newVegas:Right_CapeC
							{
								OFFSET -15.715958 -8.608795 -6.935905
								CHANNELS 3 Xrotation Yrotation Zrotation
								JOINT newVegas:Right_CapeC1
								{
									OFFSET 0.000000 -8.688499 0.000000
									CHANNELS 3 Xrotation Yrotation Zrotation
									End Site
									{
										OFFSET 0.000000 8.688499 0.000000
									}
								}
							}
							JOINT newVegas:Right_Sleeve
							{
								OFFSET -0.267448 -0.649994 0.577675
								CHANNELS 3 Xrotation Yrotation Zrotation
								End Site
								{
									OFFSET 0.000000 15.991302 0.000000
								}
							}
						}
						JOINT newVegas:Right_CapeA
						{
							OFFSET -5.115540 -8.608795 -10.395824
							CHANNELS 3 Xrotation Yrotation Zrotation
							JOINT newVegas:Right_CapeA1
							{
								OFFSET 0.000000 -8.688499 0.000000
								CHANNELS 3 Xrotation Yrotation Zrotation
								End Site
								{
									OFFSET 0.000000 8.688499 0.000000
								}
							}
						}
						JOINT newVegas:Right_CapeB
						{
							OFFSET -26.118187 -8.608795 -7.079266
							CHANNELS 3 Xrotation Yrotation Zrotation
							JOINT newVegas:Right_CapeB1
							{
								OFFSET 0.000000 -8.688499 0.000000
								CHANNELS 3 Xrotation Yrotation Zrotation
								End Site
								{
									OFFSET 0.000000 8.688499 0.000000
								}
							}
						}
					}
				}
				JOINT newVegas:Left_Collar
				{
					OFFSET 18.625099 8.655502 8.828100
					CHANNELS 3 Xrotation Yrotation Zrotation
					JOINT newVegas:Left_Collar1
					{
						OFFSET 14.783401 10.540405 -1.259500
						CHANNELS 3 Xrotation Yrotation Zrotation
						End Site
						{
							OFFSET 0.000000 18.199875 0.000000
						}
					}
				}
				JOINT newVegas:Collar_Back
				{
					OFFSET 0.000000 15.630707 -20.132601
					CHANNELS 3 Xrotation Yrotation Zrotation
					End Site
					{
						OFFSET 0.000000 22.523010 0.000000
					}
				}
				JOINT newVegas:Left_Peck
				{
					OFFSET 17.239599 -5.132599 25.482599
					CHANNELS 3 Xrotation Yrotation Zrotation
					End Site
					{
						OFFSET 0.000000 22.523010 0.000000
					}
				}
				JOINT newVegas:Right_Peck
				{
					OFFSET -17.239599 -5.132202 25.482599
					CHANNELS 3 Xrotation Yrotation Zrotation
					End Site
					{
						OFFSET 0.000000 22.523010 0.000000
					}
				}
				JOINT newVegas:Right_Collar
				{
					OFFSET -18.625099 8.655792 8.828100
					CHANNELS 3 Xrotation Yrotation Zrotation
					JOINT newVegas:Right_Collar1
					{
						OFFSET -14.783401 10.539993 -1.259500
						CHANNELS 3 Xrotation Yrotation Zrotation
						End Site
						{
							OFFSET 0.000000 18.199631 0.000000
						}
					}
				}
			}
		}
		JOINT newVegas:Belly
		{
			OFFSET 0.000000 -6.540398 9.014299
			CHANNELS 3 Xrotation Yrotation Zrotation
			End Site
			{
				OFFSET 0.000000 11.566666 0.000000
			}
		}
	}
	JOINT newVegas:ElvisFacialAnim_Joint
	{
		OFFSET 1.000000 -95.330101 -8.825800
		CHANNELS 3 Xrotation Yrotation Zrotation
		End Site
		{
			OFFSET 0.000000 35.315800 0.000000
		}
	}
}
MOTION
Frames: 4
Frame Time: 0.016667
-2.529503 83.444214 1.048891 9.511085 -61.528175 10.139692 -0.000000 -0.000001 -0.000000 -41.485620 6.898396 29.341618 42.476380 -8.855470 1.133462 -6.285690 -1.073339 -21.274702 -0.000000 0.000000 0.000000 0.000000 -0.000002 0.000000 -31.349243 -15.813430 -39.178115 41.611524 6.255672 -4.187889 -15.613015 -2.030436 28.893148 -0.000000 -0.000000 -0.000000 -0.000000 -0.000000 -0.000002 15.063788 -0.418059 -4.284001 5.872407 0.563923 -2.798210 5.868714 0.648185 -2.860163 -0.718880 0.306353 0.742034 -0.718881 0.306342 0.742040 -0.000000 0.000000 -0.000000 -0.718893 0.306365 0.742033 -0.718881 0.306340 0.742031 0.000003 0.000002 -0.000000 -0.000000 0.000000 -0.000001 1.828098 -3.192691 -12.271568 -39.387416 26.350496 -34.911098 0.429376 -46.808451 0.416218 -10.315072 -0.130697 0.363022 40.109951 -15.297175 -0.360492 5.639803 28.097943 11.338831 0.000000 0.000001 -0.000008 6.882256 2.840065 -61.140418 8.247994 7.640066 -89.897878 -0.000002 0.000000 0.000001 -2.345516 4.688853 -62.655231 8.754139 9.897068 -87.051307 -0.000000 -0.000000 0.000000 -9.042446 10.045649 -60.766192 8.524107 9.508785 -66.893056 -0.000001 -0.000000 -0.000001 -17.946897 14.754995 -51.485864 8.868427 8.667023 -84.811996 0.000001 -0.000002 0.000001 0.000000 0.000002 -0.000001 0.000000 0.000002 -0.000001 -0.000001 0.000002 -0.000001 -0.000001 -0.000001 0.000004 -0.000000 -0.000002 0.000001 -0.000001 -0.000001 0.000004 -0.000002 -0.000001 0.000003 0.632604 7.257349 8.700391 7.935999 -9.680139 53.429886 -22.867429 36.194675 17.955435 -27.369932 10.432884 -17.813541 -2.346180 -6.100554 10.731435 2.364052 -23.806315 -8.771059 -0.000000 -0.000002 -0.000001 -0.054743 0.532101 0.738738 0.019772 -0.087309 5.078506 0.000002 0.000001 -0.000001 0.348267 -5.918519 2.583830 1.432608 -4.204229 24.052105 -0.000000 0.000001 0.000001 1.205823 -11.756076 4.154789 1.794856 -3.771856 26.865402 0.000001 0.000001 0.000001 2.126198 -19.166867 11.319968 3.354768 -2.122247 18.828537 0.000000 -0.000000 -0.000000 -0.000000 -0.000002 -0.000003 -0.000002 -0.000003 -0.000004 -0.000000 -0.000002 -0.000003 -0.000001 0.000002 0.000003 -0.000001 0.000003 -0.000000 -0.000001 0.000002 0.000003 -0.000000 0.000003 0.000002 -0.000000 0.000001 0.000000 -0.000000 0.000001 0.000000 -0.000000 0.000001 0.000000 -0.000000 0.000001 0.000000 -0.000000 0.000001 0.000000 -0.000000 0.000001 0.000000 -0.000000 0.000001 0.000000 -0.000002 0.000000 -0.000000 -0.000000 -0.000001 -0.000000 
-2.080410 83.048584 0.664040 9.922301 -55.239500 8.137292 0.000000 -0.000001 0.000000 -47.259155 2.646834 28.656731 42.920031 -9.840600 1.398940 -3.287979 -4.126060 -20.784078 -0.000000 0.000002 0.000000 -0.000001 -0.000000 -0.000000 -29.452158 -16.645857 -37.794592 44.582602 3.030470 -1.914650 -16.995464 -2.682954 27.968213 -0.000000 -0.000000 0.000000 0.000000 0.000000 -0.000002 18.427065 -0.603227 -3.536042 7.295535 -0.352599 -0.796533 7.297471 -0.185246 -0.836848 -1.879204 0.246949 0.578467 -1.879217 0.246948 0.578467 0.000003 -0.000002 0.000001 -1.879106 0.246961 0.578471 -1.879201 0.246972 0.578459 -0.000000 -0.000003 0.000001 0.000003 -0.000002 -0.000001 3.590640 -8.212481 -8.338660 -17.336425 15.897245 -30.473733 -15.109915 -56.231988 -14.869716 -11.534131 1.944479 -6.382530 40.109948 -15.297179 -0.360495 5.639799 28.097945 11.338830 -0.000000 -0.000001 -0.000004 6.882255 2.840068 -61.140418 8.247996 7.640067 -89.897878 -0.000001 0.000000 -0.000000 -2.345518 4.688854 -62.655231 8.754140 9.897070 -87.051314 -0.000002 0.000001 -0.000001 -9.042449 10.045649 -60.766192 8.524106 9.508789 -66.893056 -0.000002 0.000001 -0.000000 -17.946894 14.755002 -51.485857 8.868420 8.667025 -84.811996 0.000001 0.000004 -0.000001 -0.000000 -0.000000 -0.000001 -0.000000 -0.000000 -0.000001 -0.000000 0.000000 -0.000001 -0.000000 0.000001 -0.000003 -0.000000 -0.000000 -0.000004 -0.000000 0.000001 -0.000003 -0.000002 0.000001 -0.000003 2.195473 10.570688 6.739749 12.334680 -2.089137 49.300613 -23.008769 37.026790 18.727875 -25.845448 16.676388 -17.494128 0.214188 -4.319360 5.919519 1.314337 -24.654490 -5.837876 0.000001 -0.000001 0.000001 0.333209 0.054705 1.470556 -0.415181 -0.423080 6.838804 0.000001 0.000001 -0.000001 -0.032224 -5.717554 3.568898 1.219202 -4.302303 24.290265 -0.000000 -0.000000 -0.000000 0.521336 -11.018100 4.548205 2.135414 -3.822160 27.589381 0.000002 0.000001 0.000000 0.964452 -17.509388 12.312423 4.696308 -2.397682 20.330890 0.000001 -0.000000 -0.000000 0.000004 0.000000 0.000000 0.000002 -0.000001 0.000000 0.000004 0.000000 -0.000000 -0.000002 0.000000 -0.000000 -0.000002 0.000001 -0.000001 -0.000002 0.000000 -0.000000 -0.000002 0.000001 -0.000002 -0.000002 0.000001 -0.000000 -0.000002 0.000001 -0.000000 -0.000002 0.000001 -0.000000 -0.000002 0.000001 -0.000000 -0.000002 0.000001 -0.000000 -0.000002 0.000001 -0.000000 -0.000002 0.000001 -0.000000 0.000001 0.000000 0.000000 0.000000 -0.000001 0.000000 
-2.051557 82.213333 0.846404 8.499075 -43.222007 5.971961 -0.000000 -0.000003 0.000000 -53.369391 -0.391438 23.140208 40.186750 -14.531767 1.044406 2.736048 -7.091686 -18.943246 -0.000000 0.000002 -0.000000 -0.000000 -0.000000 0.000000 -21.816594 -20.417940 -38.581170 44.527233 -2.221538 1.016013 -18.121930 -4.479440 32.411440 -0.000000 0.000000 -0.000000 0.000001 0.000000 -0.000000 19.043264 -0.528819 -1.677158 8.434709 -1.248285 0.996158 8.432946 -1.053498 0.978030 -1.005533 -0.113007 1.134085 -1.005492 -0.113018 1.134088 0.000001 -0.000002 0.000001 -1.005441 -0.112999 1.134087 -1.005513 -0.113047 1.134088 -0.000001 -0.000001 0.000001 0.000001 -0.000002 0.000003 3.416878 -8.568153 -4.408956 -14.803031 11.945507 -33.781740 -16.458820 -59.708817 -14.596244 -9.671806 4.965347 -21.142603 40.109951 -15.297173 -0.360495 5.639800 28.097943 11.338829 0.000003 -0.000003 -0.000005 6.882257 2.840065 -61.140418 8.247996 7.640065 -89.897884 -0.000000 -0.000001 0.000001 -2.345517 4.688852 -62.655231 8.754138 9.897069 -87.051307 0.000002 0.000001 -0.000001 -9.042446 10.045647 -60.766192 8.524108 9.508785 -66.893063 0.000001 -0.000002 0.000000 -17.946899 14.754993 -51.485860 8.868415 8.667022 -84.811996 -0.000000 -0.000002 0.000004 0.000003 0.000002 -0.000003 0.000003 0.000002 -0.000003 0.000003 0.000001 -0.000003 0.000001 0.000000 0.000001 0.000001 -0.000001 0.000000 0.000001 0.000000 0.000001 0.000001 -0.000000 0.000001 2.138312 11.266876 6.137825 17.411412 3.777399 45.935949 -16.048059 34.606779 15.226665 -24.851910 19.175852 -10.594047 3.146384 -2.974230 1.047970 0.338218 -25.670417 -2.901103 -0.000000 0.000000 0.000001 0.732173 -0.412258 2.206425 -0.830857 -0.784091 8.596217 -0.000000 -0.000000 -0.000002 -0.419537 -5.531663 4.555030 1.000261 -4.405242 24.527527 -0.000003 -0.000000 -0.000000 -0.173205 -10.295265 4.954410 2.478526 -3.867635 28.313823 0.000002 0.000001 0.000000 -0.259742 -15.908912 13.341548 6.053405 -2.603397 21.859109 0.000002 0.000003 0.000001 -0.000000 0.000002 -0.000000 0.000001 -0.000000 0.000001 -0.000000 0.000001 0.000000 0.000000 0.000000 0.000000 0.000000 0.000001 0.000000 0.000000 0.000000 0.000000 0.000000 0.000001 0.000001 -0.000002 -0.000002 0.000000 -0.000002 -0.000002 0.000000 -0.000002 -0.000002 0.000000 -0.000002 -0.000002 0.000000 -0.000002 -0.000002 0.000000 -0.000002 -0.000002 0.000000 -0.000002 -0.000002 0.000000 -0.000000 -0.000000 0.000000 -0.000000 -0.000003 0.000000 
-2.481416 81.841057 1.732798 5.157954 -29.726602 5.690011 -0.000000 -0.000001 0.000000 -53.544117 2.529234 14.886684 31.045768 -19.253571 -0.076174 11.037041 -12.320738 -16.871793 0.000000 0.000002 0.000000 -0.000000 0.000000 -0.000000 -12.244094 -24.165991 -38.746926 45.673868 -7.809029 2.390304 -19.696259 -6.082103 33.924296 0.000000 -0.000000 0.000000 0.000000 0.000000 -0.000001 17.947017 0.223575 -1.697931 7.663526 -0.055120 1.868100 7.656325 0.145393 1.807644 2.320371 -0.871592 2.441733 2.320348 -0.871578 2.441699 -0.000001 0.000002 -0.000002 2.320369 -0.871579 2.441724 2.320396 -0.871552 2.441712 -0.000000 0.000000 -0.000003 -0.000001 0.000002 -0.000002 1.265622 -7.131523 -5.657121 -23.592599 7.588125 -38.951312 11.776952 -59.937123 11.769767 -8.770868 10.933212 -13.361132 40.109944 -15.297182 -0.360492 5.639803 28.097945 11.338830 -0.000000 0.000003 -0.000004 6.882255 2.840064 -61.140411 8.247997 7.640065 -89.897878 0.000002 0.000000 0.000001 -2.345515 4.688851 -62.655224 8.754135 9.897071 -87.051307 0.000001 -0.000002 -0.000000 -9.042445 10.045648 -60.766192 8.524109 9.508787 -66.893063 0.000000 0.000006 -0.000000 -17.946897 14.754995 -51.485857 8.868420 8.667026 -84.811996 -0.000001 -0.000002 0.000001 -0.000002 0.000001 -0.000002 -0.000002 0.000001 -0.000002 -0.000003 0.000001 -0.000002 0.000001 0.000000 0.000001 0.000002 0.000000 -0.000000 0.000001 0.000000 0.000001 0.000001 -0.000000 0.000002 0.254905 10.476041 11.937815 21.048082 3.074641 42.497734 -10.393985 28.226102 14.523733 -24.135633 14.464049 8.084074 6.401486 -2.095818 -3.851029 -0.551829 -26.850015 0.038765 -0.000000 -0.000003 0.000001 1.142048 -0.868712 2.949710 -1.226184 -1.169348 10.346301 0.000003 0.000002 0.000000 -0.813162 -5.361009 5.543575 0.782489 -4.510068 24.763249 -0.000002 -0.000001 0.000004 -0.877457 -9.587930 5.372626 2.822590 -3.905258 29.040076 0.000000 0.000001 -0.000000 -1.545735 -14.365768 14.409158 7.422736 -2.738224 23.406259 0.000002 0.000002 -0.000002 -0.000000 -0.000000 -0.000000 -0.000000 -0.000001 -0.000000 -0.000000 -0.000001 -0.000000 0.000000 0.000001 -0.000002 0.000000 0.000002 -0.000001 0.000000 0.000001 -0.000002 0.000000 0.000002 -0.000001 -0.000003 0.000000 0.000001 -0.000003 0.000000 0.000001 -0.000003 0.000000 0.000001 -0.000003 0.000000 0.000001 -0.000003 0.000000 0.000001 -0.000003 0.000000 0.000001 -0.000003 0.000000 0.000001 0.000001 -0.000002 0.000001 -0.000000 -0.000001 0.000000 
